<svg id="Layer_1" enable-background="new 0 0 100 100" height="20" viewBox="0 0 100 100" width="20" xmlns="http://www.w3.org/2000/svg"><path id="_x30_4.Twitter" d="m90 25.195c-2.975 1.305-6.145 2.17-9.45 2.59 3.4-2.03 5.995-5.22 7.215-9.065-3.17 1.89-6.67 3.225-10.4 3.97-3.01-3.205-7.3-5.19-11.98-5.19-9.08 0-16.39 7.37-16.39 16.405 0 1.3.11 2.55.38 3.74-13.635-.665-25.7-7.2-33.805-17.155-5.796 10.443.68 19.005 5.04 21.92-2.635-.05-5.22-.815-7.41-2.02 0 8.141 5.685 14.77 13.14 16.295-1.63.541-5.191.835-7.405.26 2.125 6.495 8.155 11.27 15.325 11.425-5.58 4.365-13.803 7.923-24.26 6.77 7.265 4.685 15.875 7.36 25.16 7.36 30.18 0 46.68-25 46.68-46.67 0-.725-.025-1.425-.06-2.12 3.255-2.31 5.99-5.195 8.22-8.515z" fill="#000"/></svg>